# MagicaVoxel @ Ephtracy

# material
mtllib floorType2.mtl
usemtl palette

# normals
vn -1 0 0
vn 1 0 0
vn 0 0 1
vn 0 0 -1
vn 0 -1 0
vn 0 1 0

# texcoords
vt 0.958984 0.5
vt 0.974609 0.5
vt 0.982422 0.5
vt 0.986328 0.5

# verts
v -63 0 63
v -63 0 -63
v -63 1 63
v -63 1 48
v -63 1 -47
v -63 1 -63
v -63 2 63
v -63 2 48
v -63 2 -47
v -63 2 -63
v 44 1 63
v 44 1 48
v 44 1 -47
v 44 1 -61
v 44 1 -63
v 44 2 63
v 44 2 48
v 44 2 -47
v 44 2 -63
v -43 1 63
v -43 1 61
v -43 1 50
v -43 1 48
v -43 1 -47
v -43 1 -51
v -43 1 -54
v -43 1 -55
v -43 1 -61
v -43 1 -63
v -43 2 63
v -43 2 61
v -43 2 50
v -43 2 48
v -43 2 -47
v -43 2 -51
v -43 2 -54
v -43 2 -55
v -43 2 -61
v -43 2 -63
v 63 0 63
v 63 0 -63
v 63 1 63
v 63 1 48
v 63 1 -47
v 63 1 -63
v 63 2 63
v 63 2 48
v 63 2 -47
v 63 2 -63
v -63 0 63
v -63 1 63
v -63 2 63
v -44 1 63
v -44 2 63
v -43 0 63
v -43 1 63
v -43 2 63
v -40 0 63
v -40 1 63
v -36 0 63
v -36 1 63
v -31 0 63
v -31 1 63
v -26 0 63
v -26 1 63
v -21 0 63
v -21 1 63
v -16 0 63
v -16 1 63
v -11 0 63
v -11 1 63
v -6 0 63
v -6 1 63
v -1 0 63
v -1 1 63
v 5 0 63
v 5 1 63
v 10 0 63
v 10 1 63
v 15 0 63
v 15 1 63
v 20 0 63
v 20 1 63
v 27 0 63
v 27 1 63
v 32 0 63
v 32 1 63
v 39 0 63
v 39 1 63
v 44 0 63
v 44 1 63
v 44 2 63
v 63 0 63
v 63 1 63
v 63 2 63
v -63 1 -47
v -63 2 -47
v -45 1 -47
v -43 1 -47
v -43 2 -47
v 44 1 -47
v 44 2 -47
v 63 1 -47
v 63 2 -47
v -63 1 48
v -63 2 48
v -44 1 48
v -44 2 48
v -43 1 48
v -43 2 48
v 44 1 48
v 44 2 48
v 63 1 48
v 63 2 48
v -63 0 -63
v -63 1 -63
v -63 2 -63
v -43 1 -63
v -43 2 -63
v 44 1 -63
v 44 2 -63
v 63 0 -63
v 63 1 -63
v 63 2 -63
v -63 0 63
v -43 0 63
v -40 0 63
v -36 0 63
v -31 0 63
v -26 0 63
v -21 0 63
v -16 0 63
v -11 0 63
v -6 0 63
v -1 0 63
v 5 0 63
v 10 0 63
v 15 0 63
v 20 0 63
v 27 0 63
v 32 0 63
v 39 0 63
v 44 0 63
v 63 0 63
v -43 0 46
v -40 0 46
v -36 0 46
v -31 0 46
v -26 0 46
v -21 0 46
v -16 0 46
v -11 0 46
v -6 0 46
v -1 0 46
v 5 0 46
v 10 0 46
v 15 0 46
v 20 0 46
v 27 0 46
v 32 0 46
v 39 0 46
v 44 0 46
v -61 0 44
v -44 0 44
v 45 0 44
v 62 0 44
v -61 0 39
v -44 0 39
v 45 0 39
v 62 0 39
v -61 0 32
v -44 0 32
v 45 0 32
v 62 0 32
v -61 0 27
v -44 0 27
v 45 0 27
v 62 0 27
v -61 0 20
v -44 0 20
v 45 0 20
v 62 0 20
v -61 0 15
v -44 0 15
v 45 0 15
v 62 0 15
v -61 0 10
v -44 0 10
v 45 0 10
v 62 0 10
v -61 0 5
v -44 0 5
v 45 0 5
v 62 0 5
v -61 0 -1
v -44 0 -1
v 45 0 -1
v 62 0 -1
v -61 0 -6
v -44 0 -6
v 45 0 -6
v 62 0 -6
v -61 0 -11
v -44 0 -11
v 45 0 -11
v 62 0 -11
v -61 0 -16
v -44 0 -16
v 45 0 -16
v 62 0 -16
v -61 0 -21
v -44 0 -21
v 45 0 -21
v 62 0 -21
v -61 0 -26
v -44 0 -26
v 45 0 -26
v 62 0 -26
v -61 0 -31
v -44 0 -31
v 45 0 -31
v 62 0 -31
v -61 0 -36
v -44 0 -36
v 45 0 -36
v 62 0 -36
v -61 0 -40
v -44 0 -40
v 45 0 -40
v 62 0 -40
v -44 0 -44
v -40 0 -44
v -36 0 -44
v -31 0 -44
v -26 0 -44
v -21 0 -44
v -16 0 -44
v -11 0 -44
v -6 0 -44
v -1 0 -44
v 5 0 -44
v 10 0 -44
v 15 0 -44
v 20 0 -44
v 27 0 -44
v 32 0 -44
v 39 0 -44
v 44 0 -44
v -61 0 -45
v -45 0 -45
v 45 0 -45
v 62 0 -45
v -45 0 -61
v -40 0 -61
v -36 0 -61
v -31 0 -61
v -26 0 -61
v -21 0 -61
v -16 0 -61
v -11 0 -61
v -6 0 -61
v -1 0 -61
v 5 0 -61
v 10 0 -61
v 15 0 -61
v 20 0 -61
v 27 0 -61
v 32 0 -61
v 39 0 -61
v 44 0 -61
v -63 0 -63
v 63 0 -63
v -43 1 63
v -40 1 63
v -36 1 63
v -31 1 63
v -26 1 63
v -21 1 63
v -16 1 63
v -11 1 63
v -6 1 63
v -1 1 63
v 5 1 63
v 10 1 63
v 15 1 63
v 20 1 63
v 27 1 63
v 32 1 63
v 39 1 63
v 44 1 63
v -43 1 61
v -43 1 50
v -63 1 48
v -44 1 48
v -43 1 48
v 44 1 48
v 63 1 48
v -43 1 46
v -40 1 46
v -36 1 46
v -31 1 46
v -26 1 46
v -21 1 46
v -16 1 46
v -11 1 46
v -6 1 46
v -1 1 46
v 5 1 46
v 10 1 46
v 15 1 46
v 20 1 46
v 27 1 46
v 32 1 46
v 39 1 46
v 44 1 46
v -61 1 44
v -44 1 44
v 45 1 44
v 62 1 44
v -61 1 39
v -44 1 39
v 45 1 39
v 62 1 39
v -61 1 32
v -44 1 32
v 45 1 32
v 62 1 32
v -61 1 27
v -44 1 27
v 45 1 27
v 62 1 27
v -61 1 20
v -44 1 20
v 45 1 20
v 62 1 20
v -61 1 15
v -44 1 15
v 45 1 15
v 62 1 15
v -61 1 10
v -44 1 10
v 45 1 10
v 62 1 10
v -61 1 5
v -44 1 5
v 45 1 5
v 62 1 5
v -61 1 -1
v -44 1 -1
v 45 1 -1
v 62 1 -1
v -61 1 -6
v -44 1 -6
v 45 1 -6
v 62 1 -6
v -61 1 -11
v -44 1 -11
v 45 1 -11
v 62 1 -11
v -61 1 -16
v -44 1 -16
v 45 1 -16
v 62 1 -16
v -61 1 -21
v -44 1 -21
v 45 1 -21
v 62 1 -21
v -61 1 -26
v -44 1 -26
v 45 1 -26
v 62 1 -26
v -61 1 -31
v -44 1 -31
v 45 1 -31
v 62 1 -31
v -61 1 -36
v -44 1 -36
v 45 1 -36
v 62 1 -36
v -61 1 -40
v -44 1 -40
v 45 1 -40
v 62 1 -40
v -44 1 -44
v -40 1 -44
v -36 1 -44
v -31 1 -44
v -26 1 -44
v -21 1 -44
v -16 1 -44
v -11 1 -44
v -6 1 -44
v -1 1 -44
v 5 1 -44
v 10 1 -44
v 15 1 -44
v 20 1 -44
v 27 1 -44
v 32 1 -44
v 39 1 -44
v 44 1 -44
v -61 1 -45
v -45 1 -45
v 45 1 -45
v 62 1 -45
v -63 1 -47
v -45 1 -47
v -43 1 -47
v 44 1 -47
v 63 1 -47
v -43 1 -51
v -43 1 -54
v -43 1 -55
v -43 1 -61
v -40 1 -61
v -36 1 -61
v -31 1 -61
v -26 1 -61
v -21 1 -61
v -16 1 -61
v -11 1 -61
v -6 1 -61
v -1 1 -61
v 5 1 -61
v 10 1 -61
v 15 1 -61
v 20 1 -61
v 27 1 -61
v 32 1 -61
v 39 1 -61
v 44 1 -61
v -43 1 -63
v 44 1 -63
v -63 2 63
v -44 2 63
v -43 2 63
v 44 2 63
v 63 2 63
v -44 2 61
v -43 2 61
v -44 2 50
v -43 2 50
v -63 2 48
v -44 2 48
v -43 2 48
v 44 2 48
v 63 2 48
v -63 2 -47
v -43 2 -47
v 44 2 -47
v 63 2 -47
v -44 2 -51
v -43 2 -51
v -45 2 -53
v -44 2 -53
v -44 2 -54
v -43 2 -54
v -44 2 -55
v -43 2 -55
v -45 2 -56
v -44 2 -56
v -44 2 -61
v -43 2 -61
v -63 2 -63
v -43 2 -63
v 44 2 -63
v 63 2 -63

# faces
f 3/3/1 2/3/1 1/3/1
f 4/3/1 2/3/1 3/3/1
f 5/3/1 2/3/1 4/3/1
f 6/3/1 2/3/1 5/3/1
f 7/2/1 4/2/1 3/2/1
f 8/2/1 4/2/1 7/2/1
f 9/2/1 6/2/1 5/2/1
f 10/2/1 6/2/1 9/2/1
f 16/2/1 12/2/1 11/2/1
f 17/2/1 12/2/1 16/2/1
f 18/2/1 15/2/1 14/2/1
f 18/2/1 14/2/1 13/2/1
f 19/2/1 15/2/1 18/2/1
f 20/4/2 21/4/2 30/4/2
f 21/2/2 22/2/2 31/2/2
f 30/4/2 21/4/2 31/4/2
f 22/4/2 23/4/2 32/4/2
f 31/2/2 22/2/2 32/2/2
f 32/4/2 23/4/2 33/4/2
f 24/2/2 25/2/2 34/2/2
f 25/4/2 26/4/2 35/4/2
f 34/2/2 25/2/2 35/2/2
f 26/2/2 27/2/2 36/2/2
f 35/4/2 26/4/2 36/4/2
f 27/4/2 28/4/2 37/4/2
f 36/2/2 27/2/2 37/2/2
f 28/2/2 29/2/2 38/2/2
f 37/4/2 28/4/2 38/4/2
f 38/2/2 29/2/2 39/2/2
f 40/3/2 41/3/2 42/3/2
f 42/3/2 41/3/2 43/3/2
f 43/3/2 41/3/2 44/3/2
f 44/3/2 41/3/2 45/3/2
f 42/2/2 43/2/2 46/2/2
f 46/2/2 43/2/2 47/2/2
f 44/2/2 45/2/2 48/2/2
f 48/2/2 45/2/2 49/2/2
f 53/3/3 51/3/3 50/3/3
f 53/2/3 52/2/3 51/2/3
f 54/2/3 52/2/3 53/2/3
f 55/3/3 53/3/3 50/3/3
f 56/4/3 54/4/3 53/4/3
f 56/3/3 53/3/3 55/3/3
f 57/4/3 54/4/3 56/4/3
f 58/1/3 56/1/3 55/1/3
f 59/1/3 56/1/3 58/1/3
f 60/3/3 59/3/3 58/3/3
f 61/3/3 59/3/3 60/3/3
f 62/1/3 61/1/3 60/1/3
f 63/1/3 61/1/3 62/1/3
f 64/3/3 63/3/3 62/3/3
f 65/3/3 63/3/3 64/3/3
f 66/1/3 65/1/3 64/1/3
f 67/1/3 65/1/3 66/1/3
f 68/3/3 67/3/3 66/3/3
f 69/3/3 67/3/3 68/3/3
f 70/1/3 69/1/3 68/1/3
f 71/1/3 69/1/3 70/1/3
f 72/3/3 71/3/3 70/3/3
f 73/3/3 71/3/3 72/3/3
f 74/1/3 73/1/3 72/1/3
f 75/1/3 73/1/3 74/1/3
f 76/3/3 75/3/3 74/3/3
f 77/3/3 75/3/3 76/3/3
f 78/1/3 77/1/3 76/1/3
f 79/1/3 77/1/3 78/1/3
f 80/3/3 79/3/3 78/3/3
f 81/3/3 79/3/3 80/3/3
f 82/1/3 81/1/3 80/1/3
f 83/1/3 81/1/3 82/1/3
f 84/3/3 83/3/3 82/3/3
f 85/3/3 83/3/3 84/3/3
f 86/1/3 85/1/3 84/1/3
f 87/1/3 85/1/3 86/1/3
f 88/3/3 87/3/3 86/3/3
f 89/3/3 87/3/3 88/3/3
f 90/1/3 89/1/3 88/1/3
f 91/1/3 89/1/3 90/1/3
f 93/3/3 91/3/3 90/3/3
f 94/2/3 92/2/3 91/2/3
f 94/3/3 91/3/3 93/3/3
f 95/2/3 92/2/3 94/2/3
f 98/2/3 97/2/3 96/2/3
f 99/2/3 97/2/3 98/2/3
f 100/2/3 97/2/3 99/2/3
f 103/2/3 102/2/3 101/2/3
f 104/2/3 102/2/3 103/2/3
f 105/2/4 106/2/4 107/2/4
f 107/2/4 106/2/4 108/2/4
f 107/4/4 108/4/4 109/4/4
f 109/4/4 108/4/4 110/4/4
f 111/2/4 112/2/4 113/2/4
f 113/2/4 112/2/4 114/2/4
f 115/3/4 116/3/4 118/3/4
f 116/2/4 117/2/4 118/2/4
f 118/2/4 117/2/4 119/2/4
f 115/3/4 118/3/4 120/3/4
f 115/3/4 120/3/4 122/3/4
f 120/2/4 121/2/4 123/2/4
f 122/3/4 120/3/4 123/3/4
f 123/2/4 121/2/4 124/2/4
f 145/3/5 126/3/5 125/3/5
f 145/1/5 127/1/5 126/1/5
f 146/3/5 128/3/5 127/3/5
f 146/1/5 127/1/5 145/1/5
f 147/1/5 129/1/5 128/1/5
f 147/3/5 128/3/5 146/3/5
f 148/3/5 130/3/5 129/3/5
f 148/1/5 129/1/5 147/1/5
f 149/1/5 131/1/5 130/1/5
f 149/3/5 130/3/5 148/3/5
f 150/3/5 132/3/5 131/3/5
f 150/1/5 131/1/5 149/1/5
f 151/1/5 133/1/5 132/1/5
f 151/3/5 132/3/5 150/3/5
f 152/3/5 134/3/5 133/3/5
f 152/1/5 133/1/5 151/1/5
f 153/1/5 135/1/5 134/1/5
f 153/3/5 134/3/5 152/3/5
f 154/3/5 136/3/5 135/3/5
f 154/1/5 135/1/5 153/1/5
f 155/1/5 137/1/5 136/1/5
f 155/3/5 136/3/5 154/3/5
f 156/3/5 138/3/5 137/3/5
f 156/1/5 137/1/5 155/1/5
f 157/1/5 139/1/5 138/1/5
f 157/3/5 138/3/5 156/3/5
f 158/3/5 140/3/5 139/3/5
f 158/1/5 139/1/5 157/1/5
f 159/1/5 141/1/5 140/1/5
f 159/3/5 140/3/5 158/3/5
f 160/3/5 142/3/5 141/3/5
f 160/1/5 141/1/5 159/1/5
f 161/1/5 143/1/5 142/1/5
f 161/3/5 142/3/5 160/3/5
f 162/3/5 144/3/5 143/3/5
f 162/1/5 143/1/5 161/1/5
f 163/3/5 161/3/5 160/3/5
f 163/3/5 160/3/5 159/3/5
f 163/3/5 162/3/5 161/3/5
f 163/3/5 159/3/5 158/3/5
f 163/3/5 158/3/5 157/3/5
f 163/3/5 157/3/5 156/3/5
f 163/3/5 156/3/5 155/3/5
f 163/3/5 155/3/5 154/3/5
f 163/3/5 154/3/5 153/3/5
f 163/3/5 153/3/5 152/3/5
f 163/3/5 152/3/5 151/3/5
f 163/3/5 151/3/5 150/3/5
f 163/3/5 150/3/5 149/3/5
f 163/3/5 149/3/5 148/3/5
f 163/3/5 148/3/5 147/3/5
f 163/3/5 147/3/5 146/3/5
f 163/3/5 146/3/5 145/3/5
f 163/3/5 145/3/5 125/3/5
f 164/3/5 162/3/5 163/3/5
f 165/3/5 144/3/5 162/3/5
f 165/3/5 162/3/5 164/3/5
f 166/3/5 144/3/5 165/3/5
f 167/1/5 164/1/5 163/1/5
f 167/3/5 163/3/5 125/3/5
f 168/3/5 165/3/5 164/3/5
f 168/1/5 164/1/5 167/1/5
f 169/1/5 166/1/5 165/1/5
f 169/3/5 165/3/5 168/3/5
f 170/3/5 144/3/5 166/3/5
f 170/1/5 166/1/5 169/1/5
f 171/3/5 169/3/5 168/3/5
f 171/3/5 168/3/5 167/3/5
f 171/3/5 170/3/5 169/3/5
f 171/3/5 167/3/5 125/3/5
f 172/3/5 170/3/5 171/3/5
f 173/3/5 170/3/5 172/3/5
f 174/3/5 144/3/5 170/3/5
f 174/3/5 170/3/5 173/3/5
f 175/3/5 171/3/5 125/3/5
f 175/1/5 172/1/5 171/1/5
f 176/3/5 173/3/5 172/3/5
f 176/1/5 172/1/5 175/1/5
f 177/1/5 174/1/5 173/1/5
f 177/3/5 173/3/5 176/3/5
f 178/3/5 144/3/5 174/3/5
f 178/1/5 174/1/5 177/1/5
f 179/3/5 175/3/5 125/3/5
f 179/3/5 177/3/5 176/3/5
f 179/3/5 178/3/5 177/3/5
f 179/3/5 176/3/5 175/3/5
f 180/3/5 178/3/5 179/3/5
f 181/3/5 178/3/5 180/3/5
f 182/3/5 144/3/5 178/3/5
f 182/3/5 178/3/5 181/3/5
f 183/3/5 179/3/5 125/3/5
f 183/1/5 180/1/5 179/1/5
f 184/3/5 181/3/5 180/3/5
f 184/1/5 180/1/5 183/1/5
f 185/1/5 182/1/5 181/1/5
f 185/3/5 181/3/5 184/3/5
f 186/3/5 144/3/5 182/3/5
f 186/1/5 182/1/5 185/1/5
f 187/3/5 183/3/5 125/3/5
f 187/3/5 185/3/5 184/3/5
f 187/3/5 186/3/5 185/3/5
f 187/3/5 184/3/5 183/3/5
f 188/3/5 186/3/5 187/3/5
f 189/3/5 186/3/5 188/3/5
f 190/3/5 144/3/5 186/3/5
f 190/3/5 186/3/5 189/3/5
f 191/3/5 187/3/5 125/3/5
f 191/1/5 188/1/5 187/1/5
f 192/3/5 189/3/5 188/3/5
f 192/1/5 188/1/5 191/1/5
f 193/1/5 190/1/5 189/1/5
f 193/3/5 189/3/5 192/3/5
f 194/3/5 144/3/5 190/3/5
f 194/1/5 190/1/5 193/1/5
f 195/3/5 191/3/5 125/3/5
f 195/3/5 193/3/5 192/3/5
f 195/3/5 194/3/5 193/3/5
f 195/3/5 192/3/5 191/3/5
f 196/3/5 194/3/5 195/3/5
f 197/3/5 194/3/5 196/3/5
f 198/3/5 144/3/5 194/3/5
f 198/3/5 194/3/5 197/3/5
f 199/3/5 195/3/5 125/3/5
f 199/1/5 196/1/5 195/1/5
f 200/3/5 197/3/5 196/3/5
f 200/1/5 196/1/5 199/1/5
f 201/1/5 198/1/5 197/1/5
f 201/3/5 197/3/5 200/3/5
f 202/3/5 144/3/5 198/3/5
f 202/1/5 198/1/5 201/1/5
f 203/3/5 199/3/5 125/3/5
f 203/3/5 201/3/5 200/3/5
f 203/3/5 202/3/5 201/3/5
f 203/3/5 200/3/5 199/3/5
f 204/3/5 202/3/5 203/3/5
f 205/3/5 202/3/5 204/3/5
f 206/3/5 144/3/5 202/3/5
f 206/3/5 202/3/5 205/3/5
f 207/3/5 203/3/5 125/3/5
f 207/1/5 204/1/5 203/1/5
f 208/3/5 205/3/5 204/3/5
f 208/1/5 204/1/5 207/1/5
f 209/1/5 206/1/5 205/1/5
f 209/3/5 205/3/5 208/3/5
f 210/3/5 144/3/5 206/3/5
f 210/1/5 206/1/5 209/1/5
f 211/3/5 207/3/5 125/3/5
f 211/3/5 209/3/5 208/3/5
f 211/3/5 210/3/5 209/3/5
f 211/3/5 208/3/5 207/3/5
f 212/3/5 210/3/5 211/3/5
f 213/3/5 210/3/5 212/3/5
f 214/3/5 144/3/5 210/3/5
f 214/3/5 210/3/5 213/3/5
f 215/3/5 211/3/5 125/3/5
f 215/1/5 212/1/5 211/1/5
f 216/3/5 213/3/5 212/3/5
f 216/1/5 212/1/5 215/1/5
f 217/1/5 214/1/5 213/1/5
f 217/3/5 213/3/5 216/3/5
f 218/3/5 144/3/5 214/3/5
f 218/1/5 214/1/5 217/1/5
f 219/3/5 215/3/5 125/3/5
f 219/3/5 217/3/5 216/3/5
f 219/3/5 218/3/5 217/3/5
f 219/3/5 216/3/5 215/3/5
f 220/3/5 218/3/5 219/3/5
f 221/3/5 218/3/5 220/3/5
f 222/3/5 144/3/5 218/3/5
f 222/3/5 218/3/5 221/3/5
f 223/3/5 219/3/5 125/3/5
f 223/1/5 220/1/5 219/1/5
f 224/3/5 221/3/5 220/3/5
f 224/1/5 220/1/5 223/1/5
f 225/1/5 222/1/5 221/1/5
f 225/3/5 221/3/5 224/3/5
f 226/3/5 144/3/5 222/3/5
f 226/1/5 222/1/5 225/1/5
f 227/3/5 223/3/5 125/3/5
f 227/3/5 225/3/5 224/3/5
f 227/3/5 226/3/5 225/3/5
f 227/3/5 224/3/5 223/3/5
f 228/3/5 226/3/5 227/3/5
f 229/3/5 226/3/5 228/3/5
f 230/3/5 144/3/5 226/3/5
f 230/3/5 226/3/5 229/3/5
f 231/3/5 229/3/5 228/3/5
f 231/1/5 228/1/5 227/1/5
f 232/3/5 229/3/5 231/3/5
f 233/3/5 229/3/5 232/3/5
f 234/3/5 229/3/5 233/3/5
f 235/3/5 229/3/5 234/3/5
f 236/3/5 229/3/5 235/3/5
f 237/3/5 229/3/5 236/3/5
f 238/3/5 229/3/5 237/3/5
f 239/3/5 229/3/5 238/3/5
f 240/3/5 229/3/5 239/3/5
f 241/3/5 229/3/5 240/3/5
f 242/3/5 229/3/5 241/3/5
f 243/3/5 229/3/5 242/3/5
f 244/3/5 229/3/5 243/3/5
f 245/3/5 229/3/5 244/3/5
f 246/3/5 229/3/5 245/3/5
f 247/3/5 229/3/5 246/3/5
f 248/3/5 229/3/5 247/3/5
f 249/3/5 227/3/5 125/3/5
f 249/1/5 231/1/5 227/1/5
f 249/1/5 232/1/5 231/1/5
f 250/1/5 232/1/5 249/1/5
f 251/3/5 229/3/5 248/3/5
f 251/1/5 230/1/5 229/1/5
f 252/3/5 144/3/5 230/3/5
f 252/1/5 230/1/5 251/1/5
f 253/1/5 232/1/5 250/1/5
f 253/3/5 250/3/5 249/3/5
f 254/3/5 233/3/5 232/3/5
f 254/1/5 232/1/5 253/1/5
f 255/1/5 234/1/5 233/1/5
f 255/3/5 233/3/5 254/3/5
f 256/3/5 235/3/5 234/3/5
f 256/1/5 234/1/5 255/1/5
f 257/1/5 236/1/5 235/1/5
f 257/3/5 235/3/5 256/3/5
f 258/3/5 237/3/5 236/3/5
f 258/1/5 236/1/5 257/1/5
f 259/1/5 238/1/5 237/1/5
f 259/3/5 237/3/5 258/3/5
f 260/3/5 239/3/5 238/3/5
f 260/1/5 238/1/5 259/1/5
f 261/1/5 240/1/5 239/1/5
f 261/3/5 239/3/5 260/3/5
f 262/3/5 241/3/5 240/3/5
f 262/1/5 240/1/5 261/1/5
f 263/1/5 242/1/5 241/1/5
f 263/3/5 241/3/5 262/3/5
f 264/3/5 243/3/5 242/3/5
f 264/1/5 242/1/5 263/1/5
f 265/1/5 244/1/5 243/1/5
f 265/3/5 243/3/5 264/3/5
f 266/3/5 245/3/5 244/3/5
f 266/1/5 244/1/5 265/1/5
f 267/1/5 246/1/5 245/1/5
f 267/3/5 245/3/5 266/3/5
f 268/3/5 247/3/5 246/3/5
f 268/1/5 246/1/5 267/1/5
f 269/1/5 248/1/5 247/1/5
f 269/3/5 247/3/5 268/3/5
f 270/3/5 251/3/5 248/3/5
f 270/1/5 248/1/5 269/1/5
f 270/3/5 252/3/5 251/3/5
f 271/3/5 269/3/5 268/3/5
f 271/3/5 249/3/5 125/3/5
f 271/3/5 270/3/5 269/3/5
f 271/3/5 266/3/5 265/3/5
f 271/3/5 265/3/5 264/3/5
f 271/3/5 264/3/5 263/3/5
f 271/3/5 263/3/5 262/3/5
f 271/3/5 262/3/5 261/3/5
f 271/3/5 261/3/5 260/3/5
f 271/3/5 260/3/5 259/3/5
f 271/3/5 259/3/5 258/3/5
f 271/3/5 258/3/5 257/3/5
f 271/3/5 257/3/5 256/3/5
f 271/3/5 256/3/5 255/3/5
f 271/3/5 255/3/5 254/3/5
f 271/3/5 254/3/5 253/3/5
f 271/3/5 253/3/5 249/3/5
f 271/3/5 267/3/5 266/3/5
f 271/3/5 268/3/5 267/3/5
f 272/3/5 252/3/5 270/3/5
f 272/3/5 270/3/5 271/3/5
f 272/3/5 144/3/5 252/3/5
f 273/1/6 274/1/6 291/1/6
f 291/1/6 274/1/6 292/1/6
f 292/1/6 274/1/6 295/1/6
f 289/1/6 290/1/6 296/1/6
f 294/3/6 295/3/6 298/3/6
f 293/3/6 294/3/6 298/3/6
f 295/1/6 274/1/6 298/1/6
f 274/3/6 275/3/6 299/3/6
f 298/1/6 274/1/6 299/1/6
f 275/1/6 276/1/6 300/1/6
f 299/3/6 275/3/6 300/3/6
f 276/3/6 277/3/6 301/3/6
f 300/1/6 276/1/6 301/1/6
f 277/1/6 278/1/6 302/1/6
f 301/3/6 277/3/6 302/3/6
f 278/3/6 279/3/6 303/3/6
f 302/1/6 278/1/6 303/1/6
f 279/1/6 280/1/6 304/1/6
f 303/3/6 279/3/6 304/3/6
f 280/3/6 281/3/6 305/3/6
f 304/1/6 280/1/6 305/1/6
f 281/1/6 282/1/6 306/1/6
f 305/3/6 281/3/6 306/3/6
f 282/3/6 283/3/6 307/3/6
f 306/1/6 282/1/6 307/1/6
f 283/1/6 284/1/6 308/1/6
f 307/3/6 283/3/6 308/3/6
f 284/3/6 285/3/6 309/3/6
f 308/1/6 284/1/6 309/1/6
f 285/1/6 286/1/6 310/1/6
f 309/3/6 285/3/6 310/3/6
f 286/3/6 287/3/6 311/3/6
f 310/1/6 286/1/6 311/1/6
f 287/1/6 288/1/6 312/1/6
f 311/3/6 287/3/6 312/3/6
f 288/3/6 289/3/6 313/3/6
f 312/1/6 288/1/6 313/1/6
f 289/1/6 296/1/6 314/1/6
f 313/3/6 289/3/6 314/3/6
f 296/3/6 297/3/6 315/3/6
f 314/1/6 296/1/6 315/1/6
f 313/3/6 314/3/6 316/3/6
f 293/3/6 298/3/6 316/3/6
f 314/3/6 315/3/6 316/3/6
f 298/3/6 299/3/6 316/3/6
f 312/3/6 313/3/6 316/3/6
f 299/3/6 300/3/6 316/3/6
f 300/3/6 301/3/6 316/3/6
f 311/3/6 312/3/6 316/3/6
f 310/3/6 311/3/6 316/3/6
f 309/3/6 310/3/6 316/3/6
f 308/3/6 309/3/6 316/3/6
f 307/3/6 308/3/6 316/3/6
f 306/3/6 307/3/6 316/3/6
f 305/3/6 306/3/6 316/3/6
f 304/3/6 305/3/6 316/3/6
f 303/3/6 304/3/6 316/3/6
f 302/3/6 303/3/6 316/3/6
f 301/3/6 302/3/6 316/3/6
f 316/3/6 315/3/6 317/3/6
f 315/3/6 297/3/6 318/3/6
f 317/3/6 315/3/6 318/3/6
f 318/3/6 297/3/6 319/3/6
f 316/1/6 317/1/6 320/1/6
f 293/3/6 316/3/6 320/3/6
f 317/3/6 318/3/6 321/3/6
f 320/1/6 317/1/6 321/1/6
f 318/1/6 319/1/6 322/1/6
f 321/3/6 318/3/6 322/3/6
f 319/3/6 297/3/6 323/3/6
f 322/1/6 319/1/6 323/1/6
f 321/3/6 322/3/6 324/3/6
f 320/3/6 321/3/6 324/3/6
f 322/3/6 323/3/6 324/3/6
f 293/3/6 320/3/6 324/3/6
f 324/3/6 323/3/6 325/3/6
f 325/3/6 323/3/6 326/3/6
f 323/3/6 297/3/6 327/3/6
f 326/3/6 323/3/6 327/3/6
f 293/3/6 324/3/6 328/3/6
f 324/1/6 325/1/6 328/1/6
f 325/3/6 326/3/6 329/3/6
f 328/1/6 325/1/6 329/1/6
f 326/1/6 327/1/6 330/1/6
f 329/3/6 326/3/6 330/3/6
f 327/3/6 297/3/6 331/3/6
f 330/1/6 327/1/6 331/1/6
f 293/3/6 328/3/6 332/3/6
f 329/3/6 330/3/6 332/3/6
f 330/3/6 331/3/6 332/3/6
f 328/3/6 329/3/6 332/3/6
f 332/3/6 331/3/6 333/3/6
f 333/3/6 331/3/6 334/3/6
f 331/3/6 297/3/6 335/3/6
f 334/3/6 331/3/6 335/3/6
f 293/3/6 332/3/6 336/3/6
f 332/1/6 333/1/6 336/1/6
f 333/3/6 334/3/6 337/3/6
f 336/1/6 333/1/6 337/1/6
f 334/1/6 335/1/6 338/1/6
f 337/3/6 334/3/6 338/3/6
f 335/3/6 297/3/6 339/3/6
f 338/1/6 335/1/6 339/1/6
f 293/3/6 336/3/6 340/3/6
f 337/3/6 338/3/6 340/3/6
f 338/3/6 339/3/6 340/3/6
f 336/3/6 337/3/6 340/3/6
f 340/3/6 339/3/6 341/3/6
f 341/3/6 339/3/6 342/3/6
f 339/3/6 297/3/6 343/3/6
f 342/3/6 339/3/6 343/3/6
f 293/3/6 340/3/6 344/3/6
f 340/1/6 341/1/6 344/1/6
f 341/3/6 342/3/6 345/3/6
f 344/1/6 341/1/6 345/1/6
f 342/1/6 343/1/6 346/1/6
f 345/3/6 342/3/6 346/3/6
f 343/3/6 297/3/6 347/3/6
f 346/1/6 343/1/6 347/1/6
f 293/3/6 344/3/6 348/3/6
f 345/3/6 346/3/6 348/3/6
f 346/3/6 347/3/6 348/3/6
f 344/3/6 345/3/6 348/3/6
f 348/3/6 347/3/6 349/3/6
f 349/3/6 347/3/6 350/3/6
f 347/3/6 297/3/6 351/3/6
f 350/3/6 347/3/6 351/3/6
f 293/3/6 348/3/6 352/3/6
f 348/1/6 349/1/6 352/1/6
f 349/3/6 350/3/6 353/3/6
f 352/1/6 349/1/6 353/1/6
f 350/1/6 351/1/6 354/1/6
f 353/3/6 350/3/6 354/3/6
f 351/3/6 297/3/6 355/3/6
f 354/1/6 351/1/6 355/1/6
f 293/3/6 352/3/6 356/3/6
f 353/3/6 354/3/6 356/3/6
f 354/3/6 355/3/6 356/3/6
f 352/3/6 353/3/6 356/3/6
f 356/3/6 355/3/6 357/3/6
f 357/3/6 355/3/6 358/3/6
f 355/3/6 297/3/6 359/3/6
f 358/3/6 355/3/6 359/3/6
f 293/3/6 356/3/6 360/3/6
f 356/1/6 357/1/6 360/1/6
f 357/3/6 358/3/6 361/3/6
f 360/1/6 357/1/6 361/1/6
f 358/1/6 359/1/6 362/1/6
f 361/3/6 358/3/6 362/3/6
f 359/3/6 297/3/6 363/3/6
f 362/1/6 359/1/6 363/1/6
f 293/3/6 360/3/6 364/3/6
f 361/3/6 362/3/6 364/3/6
f 362/3/6 363/3/6 364/3/6
f 360/3/6 361/3/6 364/3/6
f 364/3/6 363/3/6 365/3/6
f 365/3/6 363/3/6 366/3/6
f 363/3/6 297/3/6 367/3/6
f 366/3/6 363/3/6 367/3/6
f 293/3/6 364/3/6 368/3/6
f 364/1/6 365/1/6 368/1/6
f 365/3/6 366/3/6 369/3/6
f 368/1/6 365/1/6 369/1/6
f 366/1/6 367/1/6 370/1/6
f 369/3/6 366/3/6 370/3/6
f 367/3/6 297/3/6 371/3/6
f 370/1/6 367/1/6 371/1/6
f 293/3/6 368/3/6 372/3/6
f 369/3/6 370/3/6 372/3/6
f 370/3/6 371/3/6 372/3/6
f 368/3/6 369/3/6 372/3/6
f 372/3/6 371/3/6 373/3/6
f 373/3/6 371/3/6 374/3/6
f 371/3/6 297/3/6 375/3/6
f 374/3/6 371/3/6 375/3/6
f 293/3/6 372/3/6 376/3/6
f 372/1/6 373/1/6 376/1/6
f 373/3/6 374/3/6 377/3/6
f 376/1/6 373/1/6 377/1/6
f 374/1/6 375/1/6 378/1/6
f 377/3/6 374/3/6 378/3/6
f 375/3/6 297/3/6 379/3/6
f 378/1/6 375/1/6 379/1/6
f 293/3/6 376/3/6 380/3/6
f 377/3/6 378/3/6 380/3/6
f 378/3/6 379/3/6 380/3/6
f 376/3/6 377/3/6 380/3/6
f 380/3/6 379/3/6 381/3/6
f 381/3/6 379/3/6 382/3/6
f 379/3/6 297/3/6 383/3/6
f 382/3/6 379/3/6 383/3/6
f 381/3/6 382/3/6 384/3/6
f 380/1/6 381/1/6 384/1/6
f 384/3/6 382/3/6 385/3/6
f 385/3/6 382/3/6 386/3/6
f 386/3/6 382/3/6 387/3/6
f 387/3/6 382/3/6 388/3/6
f 388/3/6 382/3/6 389/3/6
f 389/3/6 382/3/6 390/3/6
f 390/3/6 382/3/6 391/3/6
f 391/3/6 382/3/6 392/3/6
f 392/3/6 382/3/6 393/3/6
f 393/3/6 382/3/6 394/3/6
f 394/3/6 382/3/6 395/3/6
f 395/3/6 382/3/6 396/3/6
f 396/3/6 382/3/6 397/3/6
f 397/3/6 382/3/6 398/3/6
f 398/3/6 382/3/6 399/3/6
f 399/3/6 382/3/6 400/3/6
f 400/3/6 382/3/6 401/3/6
f 293/3/6 380/3/6 402/3/6
f 380/1/6 384/1/6 402/1/6
f 384/1/6 385/1/6 402/1/6
f 402/1/6 385/1/6 403/1/6
f 401/3/6 382/3/6 404/3/6
f 382/1/6 383/1/6 404/1/6
f 383/3/6 297/3/6 405/3/6
f 404/1/6 383/1/6 405/1/6
f 402/3/6 403/3/6 406/3/6
f 293/3/6 402/3/6 406/3/6
f 403/1/6 385/1/6 407/1/6
f 406/3/6 403/3/6 407/3/6
f 407/1/6 385/1/6 408/1/6
f 401/3/6 404/3/6 409/3/6
f 400/1/6 401/1/6 409/1/6
f 404/3/6 405/3/6 409/3/6
f 405/3/6 297/3/6 410/3/6
f 409/3/6 405/3/6 410/3/6
f 408/1/6 385/1/6 411/1/6
f 411/1/6 385/1/6 412/1/6
f 412/1/6 385/1/6 413/1/6
f 413/1/6 385/1/6 414/1/6
f 385/3/6 386/3/6 415/3/6
f 414/1/6 385/1/6 415/1/6
f 386/1/6 387/1/6 416/1/6
f 415/3/6 386/3/6 416/3/6
f 387/3/6 388/3/6 417/3/6
f 416/1/6 387/1/6 417/1/6
f 388/1/6 389/1/6 418/1/6
f 417/3/6 388/3/6 418/3/6
f 389/3/6 390/3/6 419/3/6
f 418/1/6 389/1/6 419/1/6
f 390/1/6 391/1/6 420/1/6
f 419/3/6 390/3/6 420/3/6
f 391/3/6 392/3/6 421/3/6
f 420/1/6 391/1/6 421/1/6
f 392/1/6 393/1/6 422/1/6
f 421/3/6 392/3/6 422/3/6
f 393/3/6 394/3/6 423/3/6
f 422/1/6 393/1/6 423/1/6
f 394/1/6 395/1/6 424/1/6
f 423/3/6 394/3/6 424/3/6
f 395/3/6 396/3/6 425/3/6
f 424/1/6 395/1/6 425/1/6
f 396/1/6 397/1/6 426/1/6
f 425/3/6 396/3/6 426/3/6
f 397/3/6 398/3/6 427/3/6
f 426/1/6 397/1/6 427/1/6
f 398/1/6 399/1/6 428/1/6
f 427/3/6 398/3/6 428/3/6
f 399/3/6 400/3/6 429/3/6
f 428/1/6 399/1/6 429/1/6
f 400/1/6 409/1/6 430/1/6
f 429/3/6 400/3/6 430/3/6
f 430/1/6 409/1/6 431/1/6
f 428/3/6 429/3/6 432/3/6
f 426/3/6 427/3/6 432/3/6
f 430/3/6 431/3/6 432/3/6
f 429/3/6 430/3/6 432/3/6
f 427/3/6 428/3/6 432/3/6
f 414/3/6 415/3/6 432/3/6
f 415/3/6 416/3/6 432/3/6
f 425/3/6 426/3/6 432/3/6
f 424/3/6 425/3/6 432/3/6
f 423/3/6 424/3/6 432/3/6
f 422/3/6 423/3/6 432/3/6
f 421/3/6 422/3/6 432/3/6
f 420/3/6 421/3/6 432/3/6
f 419/3/6 420/3/6 432/3/6
f 418/3/6 419/3/6 432/3/6
f 417/3/6 418/3/6 432/3/6
f 416/3/6 417/3/6 432/3/6
f 432/3/6 431/3/6 433/3/6
f 434/2/6 435/2/6 439/2/6
f 435/4/6 436/4/6 439/4/6
f 439/4/6 436/4/6 440/4/6
f 434/2/6 439/2/6 441/2/6
f 439/2/6 440/2/6 441/2/6
f 441/2/6 440/2/6 442/2/6
f 434/2/6 441/2/6 443/2/6
f 441/4/6 442/4/6 444/4/6
f 443/2/6 441/2/6 444/2/6
f 444/4/6 442/4/6 445/4/6
f 437/2/6 438/2/6 446/2/6
f 446/2/6 438/2/6 447/2/6
f 448/2/6 449/2/6 452/2/6
f 452/2/6 449/2/6 453/2/6
f 448/2/6 452/2/6 454/2/6
f 452/4/6 453/4/6 455/4/6
f 454/2/6 452/2/6 455/2/6
f 454/4/6 455/4/6 456/4/6
f 455/4/6 453/4/6 456/4/6
f 456/4/6 453/4/6 457/4/6
f 454/4/6 456/4/6 458/4/6
f 456/2/6 457/2/6 458/2/6
f 458/2/6 457/2/6 459/2/6
f 448/2/6 454/2/6 460/2/6
f 454/4/6 458/4/6 460/4/6
f 458/4/6 459/4/6 460/4/6
f 460/4/6 459/4/6 461/4/6
f 460/2/6 461/2/6 462/2/6
f 461/4/6 459/4/6 462/4/6
f 462/4/6 459/4/6 463/4/6
f 448/2/6 460/2/6 464/2/6
f 460/2/6 462/2/6 464/2/6
f 462/2/6 463/2/6 464/2/6
f 464/2/6 463/2/6 465/2/6
f 450/2/6 451/2/6 466/2/6
f 466/2/6 451/2/6 467/2/6
